# xmcd CD database file
#
# Track frame offsets:
#	150
#	18055
#	30497
#	41482
#	58345
#	101865
#	126490
#	143480
#	166970
#	179912
#	203167
#	251425
#	263817
#	276882
#	326172
#	343867
#
# Disc length: 4749 seconds
#
# Revision: 0
# Processed by: cddbd v1.4PL0 Copyright (c) Steve Scherf et al.
# Submitted via: CDex 1.50Beta7
#
DISCID=f3128b10
DTITLE=Various Artist - Jazz of the Millennium - Disk 1
DYEAR=1900
DGENRE=Jazz
TTITLE0=Louis Armstong - Makin' Whoopee
TTITLE1=Nat King Cole and George Shearing - Ket There Be Love
TTITLE2=Nina Simone - I Loves You Porgy
TTITLE3=Chet Baker - Let's Get Lost
TTITLE4=Dave Brubeck Quartet - Take Five
TTITLE5=Herbie Hancock - Cantaloupe Island
TTITLE6=Billie Holliday - Lafy Sings The Blues
TTITLE7=Horace Sikver - Song For My Father
TTITLE8=Miles Davis - Florence Sur Les Champs Eylysees
TTITLE9=Lee Morgan - The Sidewinder
TTITLE10=John Coltrane - Blue Train
TTITLE11=Count Basie - Come Fly With Me
TTITLE12=Julie Holiday - Cry Me A River
TTITLE13=Cannonball Adderley (Featuring Miles Davis) - Autumn Leaves
TTITLE14=George Benson - I Remeber Wes
TTITLE15=Ella Fitzgerald - I've Got You Under My Skin
EXTD=
EXTT0=
EXTT1=
EXTT2=
EXTT3=
EXTT4=
EXTT5=
EXTT6=
EXTT7=
EXTT8=
EXTT9=
EXTT10=
EXTT11=
EXTT12=
EXTT13=
EXTT14=
EXTT15=
PLAYORDER=
